<svg width="35" height="35" viewBox="0 0 35 35" fill="none" xmlns="http://www.w3.org/2000/svg">
<path d="M22.7123 34.493C21.516 34.493 20.3189 34.493 19.1226 34.493C18.6774 34.493 18.4546 34.2639 18.454 33.8058C18.454 33.2203 18.4472 32.6341 18.4556 32.0486C18.4602 31.7723 18.3462 31.6583 18.0693 31.6621C17.4076 31.6713 16.7452 31.6713 16.0836 31.6621C15.8036 31.6583 15.6981 31.7761 15.7019 32.0509C15.7111 32.7259 15.6935 33.4009 15.708 34.0752C15.7149 34.3928 15.5864 34.4976 15.2781 34.4969C12.7195 34.49 10.1609 34.4884 7.60229 34.4969C7.24355 34.4984 7.14181 34.3423 7.14487 34.0109C7.15482 32.8399 7.14258 31.6682 7.15252 30.4965C7.15482 30.2118 7.05997 30.0404 6.8129 29.8789C3.73185 27.8676 1.98633 25.0099 1.59011 21.3678C1.39506 19.5769 1.63218 17.8067 2.35808 16.1337C2.49806 15.8108 2.43763 15.6485 2.14237 15.4572C0.258405 14.2357 -0.401711 12.1028 0.521534 10.0533C1.174 8.6045 2.38256 7.84377 3.93302 7.60116C4.278 7.54682 4.41568 7.68917 4.40497 8.04581C4.38509 8.68179 4.38509 9.31931 4.40497 9.95529C4.41492 10.276 4.30401 10.4351 3.99192 10.5293C2.91493 10.853 2.83615 11.9849 3.22319 12.5941C3.32875 12.7602 3.47025 12.8781 3.62247 12.9959C3.90702 13.2171 4.10666 13.1459 4.33154 12.8849C5.51409 11.5104 6.95518 10.4902 8.63645 9.81294C10.1448 9.20604 11.716 8.96114 13.3383 8.97032C15.9857 8.98486 18.6338 8.96879 21.2811 8.98104C21.646 8.98257 21.8288 8.87925 21.994 8.52567C22.7069 6.99809 23.93 6.00547 25.4683 5.37025C26.24 5.05188 27.0501 4.89881 27.8708 4.7886C28.3826 4.71973 28.4537 4.77866 28.4537 5.29142C28.4552 7.20166 28.4606 9.11114 28.4483 11.0214C28.446 11.3811 28.5508 11.6237 28.8346 11.8686C30.0447 12.9133 30.984 14.1745 31.6311 15.6386C31.7688 15.9501 31.9256 16.1024 32.2798 16.0809C32.7494 16.0526 33.2214 16.0817 33.6925 16.0725C33.9847 16.0664 34.1064 16.1934 34.1056 16.4835C34.1018 19.0297 34.1018 21.5767 34.1041 24.1229C34.1041 24.4451 33.961 24.5791 33.6367 24.5699C33.1533 24.5553 32.6691 24.5745 32.1857 24.5637C31.9325 24.5584 31.794 24.6648 31.6931 24.8936C30.7629 27.0051 29.2882 28.6483 27.3522 29.8843C27.1097 30.0396 26.9996 30.2088 27.0027 30.4996C27.0141 31.6705 26.9965 32.8422 27.0134 34.0139C27.0187 34.3798 26.8925 34.5045 26.5277 34.4999C25.2548 34.4838 23.982 34.4938 22.7092 34.4938L22.7123 34.493ZM17.1216 11.877C15.8488 11.877 14.5752 11.8831 13.3024 11.8747C12.6262 11.8701 11.9531 11.903 11.2899 12.0331C8.56072 12.5689 6.55666 14.1125 5.28921 16.5524C4.32772 18.4037 4.15485 20.3889 4.68416 22.4201C5.10257 24.0265 5.93555 25.3788 7.14029 26.5214C7.84553 27.1903 8.64868 27.6931 9.52833 28.072C9.9475 28.2526 10.0821 28.5067 10.0622 28.949C10.0286 29.6991 10.0592 30.4514 10.0508 31.2029C10.0477 31.4777 10.1517 31.5948 10.4325 31.5909C11.1071 31.581 11.7825 31.5772 12.4564 31.5932C12.7807 31.6009 12.8763 31.4631 12.8702 31.1593C12.8564 30.5103 12.8779 29.8598 12.8618 29.2108C12.8534 28.8832 12.9689 28.7592 13.3024 28.76C15.8488 28.7684 18.3951 28.7684 20.9415 28.76C21.2582 28.7592 21.3691 28.8809 21.3622 29.1909C21.3477 29.8399 21.3699 30.4896 21.3538 31.1394C21.3462 31.4608 21.4456 31.6039 21.7875 31.5932C22.4109 31.5741 23.0358 31.5718 23.6585 31.5932C24.0218 31.6062 24.1197 31.4509 24.1121 31.1157C24.096 30.4031 24.135 29.6883 24.0975 28.9766C24.0731 28.5143 24.2306 28.2495 24.6521 28.0636C25.5539 27.6671 26.39 27.1551 27.109 26.4732C28.3114 25.3329 29.1215 23.9576 29.546 22.3535C29.7127 21.7229 29.7211 21.7252 30.3728 21.7244C30.5258 21.7244 30.6788 21.7152 30.831 21.7252C31.1148 21.7443 31.2135 21.6096 31.2089 21.3371C31.1982 20.7899 31.2074 20.242 31.2058 19.6948C31.2035 18.8422 31.2777 18.9111 30.4256 18.9095C29.9544 18.9085 29.6554 18.6787 29.5284 18.22C29.5215 18.1955 29.5161 18.1702 29.5093 18.1458C28.4613 14.4102 25.1217 11.8762 21.246 11.8755C19.8707 11.8755 18.4961 11.8755 17.1208 11.8755L17.1216 11.877Z" fill="#92A500"/>
<path d="M19.9096 6.21819C19.5532 6.21819 19.1975 6.21436 18.841 6.21972C18.5963 6.22278 18.4678 6.12635 18.4471 5.86691C18.2957 3.94213 15.8954 2.54541 13.9625 3.9957C13.4087 4.41127 13.0882 4.97531 12.9505 5.64879C12.873 6.02941 12.6361 6.21998 12.2399 6.22049C11.6165 6.22049 10.9931 6.21743 10.3697 6.22049C10.1073 6.22125 9.96964 6.13248 9.99335 5.83476C10.2037 3.27323 11.9584 1.24131 14.4895 0.640528C17.6187 -0.101834 20.8895 2.18724 21.2888 5.38016C21.4081 6.33222 21.3637 6.21589 20.5193 6.22125C20.3158 6.22202 20.1123 6.22125 19.9089 6.22125V6.21972L19.9096 6.21819Z" fill="#92A500"/>
<path d="M25.5638 17.5035C25.5646 18.3416 24.9893 18.911 24.1426 18.9102C23.3318 18.9102 22.7382 18.3056 22.7298 17.4722C22.7222 16.6961 23.3784 16.0701 24.1923 16.0762C24.9702 16.0823 25.563 16.6992 25.5638 17.5043V17.5035Z" fill="#92A500"/>
</svg>
