<svg width="35" height="35" viewBox="0 0 35 35" fill="none" xmlns="http://www.w3.org/2000/svg">
<path d="M17.0206 25.0033C13.9014 24.9752 11.3756 22.5203 11.3833 19.3449C11.3911 16.0613 14.0055 13.6437 17.1253 13.6901C20.2241 13.7365 22.6937 16.1639 22.6972 19.3435C22.7007 22.5478 20.1418 24.9927 17.0213 25.0026L17.0206 25.0033ZM19.8452 19.326C19.9211 17.882 18.5524 16.5246 17.036 16.5281C15.4888 16.5316 14.1742 17.9116 14.215 19.366C14.2578 20.9189 15.4838 22.1703 17.0396 22.166C18.6171 22.1618 19.8487 20.9147 19.8459 19.326H19.8452Z" fill="#92A500"/>
<path d="M8.55803 12.2696C5.3974 12.2064 2.89265 9.80917 2.88843 6.60214C2.88422 3.45697 5.34256 0.926917 8.55592 0.940976C11.8248 0.955036 14.2023 3.53641 14.1925 6.60073C14.1826 9.79018 11.7025 12.1965 8.55803 12.2703V12.2696ZM11.3517 6.65416C11.3587 5.04994 10.1419 3.79019 8.57701 3.78175C6.99669 3.77261 5.7749 4.9944 5.72007 6.5459C5.66523 8.10091 7.03817 9.43518 8.50179 9.40917C10.1032 9.38034 11.3447 8.21198 11.3517 6.65486V6.65416Z" fill="#92A500"/>
<path d="M25.5598 12.2695C22.3261 12.228 19.9204 9.65229 19.8916 6.63787C19.8635 3.68392 22.1981 0.942267 25.5169 0.939455C28.7626 0.936644 31.1971 3.47865 31.1935 6.59569C31.1893 9.80905 28.7014 12.1774 25.5605 12.2695H25.5598ZM22.7169 6.621C22.719 8.18796 23.9493 9.39991 25.5366 9.40062C27.1232 9.40062 28.3809 8.14578 28.3647 6.57812C28.3493 5.03576 27.0747 3.77882 25.5303 3.78164C23.9605 3.78445 22.7141 5.04209 22.7169 6.621Z" fill="#92A500"/>
<path d="M17.0205 29.2546C15.6876 29.2546 14.3541 29.2525 13.0212 29.2546C11.9351 29.2567 11.3586 29.8331 11.3537 30.9284C11.3488 32.1207 11.3446 33.3136 11.3572 34.5059C11.3607 34.8201 11.263 34.9474 10.9354 34.9382C10.269 34.92 9.60257 34.9249 8.93614 34.9368C8.65705 34.9418 8.53614 34.8532 8.53825 34.5558C8.54879 33.1766 8.48412 31.7931 8.55863 30.4173C8.67533 28.2585 10.4026 26.4743 12.6184 26.4511C15.5653 26.4208 18.5122 26.4356 21.4599 26.4461C23.5695 26.4539 25.4711 28.3084 25.5196 30.4201C25.5513 31.7994 25.5231 33.1794 25.5316 34.5586C25.533 34.8258 25.4409 34.9396 25.1653 34.9354C24.4757 34.9249 23.7853 34.9228 23.0957 34.9361C22.7984 34.9418 22.7133 34.8145 22.7154 34.5361C22.7238 33.3087 22.721 32.0806 22.7182 30.8532C22.7161 29.8465 22.1361 29.2595 21.1266 29.2546C19.7586 29.2483 18.3899 29.2532 17.0219 29.2525L17.0205 29.2546Z" fill="#92A500"/>
<path d="M10.6402 13.7113C10.5165 13.9728 10.3203 14.1423 10.1762 14.3482C9.78747 14.905 9.42403 15.4793 9.19555 16.1212C9.08378 16.4347 8.90381 16.5549 8.572 16.5514C7.20469 16.5387 5.83598 16.5781 4.46937 16.5366C3.33685 16.5022 2.86866 17.2459 2.86234 18.1373C2.8539 19.3176 2.86023 20.498 2.85882 21.6783C2.85882 22.1563 2.84758 22.1662 2.36462 22.1676C1.71014 22.169 1.05496 22.1619 0.400475 22.1704C0.1474 22.1739 0.0440605 22.0762 0.0454665 21.8196C0.0524964 20.4403 0.015941 19.0604 0.0588233 17.6825C0.124201 15.5468 1.97939 13.7148 4.10663 13.6853C6.19872 13.6558 8.29151 13.6776 10.3836 13.679C10.4602 13.679 10.5376 13.698 10.6402 13.712V13.7113Z" fill="#92A500"/>
<path d="M26.9094 13.6771C27.8564 13.6771 28.804 13.6743 29.7509 13.6771C32.1572 13.6855 34.0124 15.5449 34.0202 17.9576C34.0244 19.2201 34.0131 20.4827 34.0265 21.7453C34.03 22.0644 33.9224 22.1818 33.6005 22.1727C32.9579 22.1544 32.314 22.1692 31.6715 22.167C31.2328 22.1656 31.2117 22.146 31.211 21.7143C31.2089 20.4982 31.211 19.2827 31.2096 18.0665C31.2096 17.6574 31.1154 17.2855 30.8265 16.9699C30.5439 16.662 30.2022 16.5431 29.7938 16.5446C28.3787 16.5502 26.9636 16.5347 25.5492 16.553C25.1871 16.5579 25.0022 16.4342 24.8722 16.0975C24.5755 15.3305 24.1467 14.6338 23.6314 13.992C23.5738 13.9203 23.4711 13.8528 23.5077 13.7565C23.5548 13.6307 23.6891 13.6785 23.7875 13.6778C24.8279 13.6743 25.869 13.6757 26.9094 13.6757V13.6771Z" fill="#92A500"/>
</svg>
