<svg width="35" height="35" viewBox="0 0 35 35" fill="none" xmlns="http://www.w3.org/2000/svg">
<path d="M27.8844 3.72005H26.4678V2.30339C26.4678 1.52139 25.8331 0.886719 25.0511 0.886719C24.2691 0.886719 23.6344 1.52139 23.6344 2.30339V3.72005H12.3011V2.30339C12.3011 1.52139 11.6664 0.886719 10.8844 0.886719C10.1024 0.886719 9.46777 1.52139 9.46777 2.30339V3.72005H8.05111C4.14536 3.72005 0.967773 6.89764 0.967773 10.8034V27.8034C0.967773 31.7091 4.14536 34.8867 8.05111 34.8867H27.8844C31.7902 34.8867 34.9678 31.7091 34.9678 27.8034V10.8034C34.9678 6.89764 31.7902 3.72005 27.8844 3.72005ZM8.05111 6.55339H27.8844C30.2276 6.55339 32.1344 8.46022 32.1344 10.8034V12.2201H3.80111V10.8034C3.80111 8.46022 5.70794 6.55339 8.05111 6.55339ZM27.8844 32.0534H8.05111C5.70794 32.0534 3.80111 30.1466 3.80111 27.8034V15.0534H32.1344V27.8034C32.1344 30.1466 30.2276 32.0534 27.8844 32.0534ZM23.6344 23.5534C23.6344 24.3354 22.9998 24.9701 22.2178 24.9701H19.3844V27.8034C19.3844 28.5854 18.7498 29.2201 17.9678 29.2201C17.1858 29.2201 16.5511 28.5854 16.5511 27.8034V24.9701H13.7178C12.9358 24.9701 12.3011 24.3354 12.3011 23.5534C12.3011 22.7714 12.9358 22.1367 13.7178 22.1367H16.5511V19.3034C16.5511 18.5214 17.1858 17.8867 17.9678 17.8867C18.7498 17.8867 19.3844 18.5214 19.3844 19.3034V22.1367H22.2178C22.9998 22.1367 23.6344 22.7714 23.6344 23.5534Z" fill="#92A500"/>
</svg>
