<svg width="34" height="35" viewBox="0 0 34 35" fill="none" xmlns="http://www.w3.org/2000/svg">
<path d="M18.4172 3.78522V2.30339C18.4172 1.51997 17.7839 0.886719 17.0005 0.886719C16.2171 0.886719 15.5838 1.51997 15.5838 2.30339V3.78522C7.6519 4.50347 1.41715 11.1887 1.41715 19.3034C1.41715 23.1822 2.84232 26.7352 5.19541 29.4651C3.9969 30.1012 2.83382 31.3309 2.83382 33.4701C2.83382 34.2535 3.46707 34.8867 4.25049 34.8867C5.0339 34.8867 5.66715 34.2535 5.66715 33.4701C5.66715 32.0534 6.88266 31.7786 7.23966 31.729C7.33882 31.7176 7.43515 31.6964 7.52582 31.6666C10.1537 33.684 13.439 34.8867 16.9991 34.8867C20.5592 34.8867 23.8487 33.684 26.4766 31.6638C26.5616 31.6921 26.6508 31.7134 26.7429 31.7261C27.1169 31.7771 28.3324 32.052 28.3324 33.4686C28.3324 34.2521 28.9657 34.8853 29.7491 34.8853C30.5325 34.8853 31.1657 34.2521 31.1657 33.4686C31.1657 31.3295 30.0027 30.0998 28.8042 29.4637C31.1572 26.7338 32.5824 23.1808 32.5824 19.302C32.5824 11.1873 26.3477 4.50205 18.4157 3.7838L18.4172 3.78522ZM4.25049 19.3034C4.25049 12.2725 9.96957 6.55339 17.0005 6.55339C24.0314 6.55339 29.7505 12.2725 29.7505 19.3034C29.7505 26.3343 24.0314 32.0534 17.0005 32.0534C9.96957 32.0534 4.25049 26.3343 4.25049 19.3034ZM34.0005 7.26172C34.0005 8.04514 33.3672 8.67839 32.5838 8.67839C31.8004 8.67839 31.1672 8.04514 31.1672 7.26172C31.1672 5.54472 29.7831 3.72005 27.2217 3.72005C26.4383 3.72005 25.8051 3.0868 25.8051 2.30339C25.8051 1.51997 26.4383 0.886719 27.2217 0.886719C31.0241 0.886719 34.0005 3.68747 34.0005 7.26172ZM1.41715 8.67839C0.633738 8.67839 0.000488281 8.04514 0.000488281 7.26172C0.000488281 3.68747 2.97832 0.886719 6.77924 0.886719C7.56265 0.886719 8.1959 1.51997 8.1959 2.30339C8.1959 3.0868 7.56265 3.72005 6.77924 3.72005C4.21649 3.72005 2.83382 5.54472 2.83382 7.26172C2.83382 8.04514 2.20057 8.67839 1.41715 8.67839ZM18.4172 10.8034V20.7201C18.4172 21.5035 17.7839 22.1367 17.0005 22.1367C16.2171 22.1367 15.5838 21.5035 15.5838 20.7201V10.8034C15.5838 10.02 16.2171 9.38672 17.0005 9.38672C17.7839 9.38672 18.4172 10.02 18.4172 10.8034ZM19.1255 27.0951C19.1255 28.2681 18.1735 29.2201 17.0005 29.2201C15.8275 29.2201 14.8755 28.2681 14.8755 27.0951C14.8755 25.9221 15.8275 24.9701 17.0005 24.9701C18.1735 24.9701 19.1255 25.9221 19.1255 27.0951Z" fill="#92A500"/>
</svg>
