<svg width="18" height="21" viewBox="0 0 18 21" fill="none" xmlns="http://www.w3.org/2000/svg">
<path d="M8.78135 0.253906C6.57631 0.256332 4.46226 1.1333 2.90298 2.69243C1.34369 4.25155 0.466514 6.36551 0.463867 8.57056C0.463867 10.7122 2.1222 14.0639 5.39303 18.5322C5.78241 19.0657 6.29224 19.4996 6.88102 19.7988C7.46981 20.098 8.12092 20.2539 8.78135 20.2539C9.44179 20.2539 10.0929 20.098 10.6817 19.7988C11.2705 19.4996 11.7803 19.0657 12.1697 18.5322C15.4405 14.0639 17.0988 10.7122 17.0988 8.57056C17.0962 6.36551 16.219 4.25155 14.6597 2.69243C13.1004 1.1333 10.9864 0.256332 8.78135 0.253906ZM8.78135 11.8856C8.12208 11.8856 7.47762 11.6901 6.92946 11.3238C6.38129 10.9575 5.95405 10.4369 5.70176 9.82784C5.44947 9.21875 5.38346 8.54853 5.51207 7.90193C5.64069 7.25532 5.95816 6.66138 6.42433 6.19521C6.89051 5.72903 7.48445 5.41156 8.13105 5.28295C8.77766 5.15433 9.44788 5.22034 10.057 5.47263C10.666 5.72492 11.1866 6.15217 11.5529 6.70033C11.9192 7.24849 12.1147 7.89296 12.1147 8.55223C12.1147 9.43628 11.7635 10.2841 11.1384 10.9092C10.5133 11.5344 9.66541 11.8856 8.78135 11.8856Z" fill="#4F5E00"/>
</svg>
