<svg width="38" height="35" viewBox="0 0 38 35" fill="none" xmlns="http://www.w3.org/2000/svg">
<path d="M37.0622 16.2978C37.0622 18.9821 37.0097 21.6665 37.0754 24.3476C37.1674 28.2017 34.506 31.6549 30.5008 32.3219C26.9654 32.9133 23.4596 33.6756 19.9078 34.1783C18.4095 34.3919 16.9113 34.198 15.4262 33.9188C12.4954 33.37 9.5547 32.8542 6.6206 32.3318C3.99208 31.8652 2.04697 30.4557 0.811558 28.0933C0.243139 27.0123 0 25.836 0 24.6105C0 19.107 0.00328566 13.6035 0 8.10004C0 6.00379 0.689988 4.15068 2.14225 2.66556C3.93951 0.825592 6.17047 -0.00239429 8.74642 0.349171C10.984 0.654738 13.1952 1.1213 15.4097 1.56487C16.5072 1.785 17.4501 2.34685 18.242 3.1387C18.4523 3.34569 18.5837 3.37198 18.8071 3.15184C19.6975 2.27457 20.7555 1.70943 21.9942 1.48601C24.0675 1.11144 26.1308 0.658023 28.214 0.362314C30.6158 0.0206054 32.7613 0.661309 34.5651 2.35014C36.2868 3.9634 37.0819 5.94465 37.0655 8.28732C37.0458 10.9553 37.0622 13.6265 37.0622 16.2978ZM33.931 16.3306C33.931 13.5247 33.9737 10.7187 33.9179 7.91276C33.8653 5.27109 31.7329 3.16498 28.9532 3.45083C26.7518 3.67754 24.5734 4.13425 22.4115 4.61396C21.0479 4.91952 20.1411 6.11222 20.1279 7.50862C20.1181 8.6586 20.1279 9.80858 20.1279 10.9586C20.1279 17.4182 20.1279 23.8778 20.1279 30.3374C20.1279 30.9452 20.1739 30.9814 20.7621 30.8762C21.7051 30.7087 22.648 30.5444 23.591 30.3735C25.7169 29.9858 27.8394 29.5751 29.9718 29.2137C32.2915 28.8194 33.9277 26.9367 33.931 24.5809C33.9343 21.8308 33.931 19.0774 33.931 16.3273V16.3306ZM16.931 18.8869C16.931 15.1346 16.931 11.3824 16.931 7.63348C16.931 6.03665 15.9979 4.87352 14.4405 4.57453C12.4264 4.18682 10.4057 3.81226 8.38172 3.4804C5.6579 3.03355 3.13452 5.20537 3.13123 7.97847C3.12466 13.5378 3.12795 19.0971 3.13123 24.6565C3.13123 26.8743 4.73792 28.7931 6.9196 29.1907C10.0443 29.7624 13.1689 30.321 16.2936 30.8861C16.8883 30.9945 16.9343 30.9551 16.9343 30.3538C16.9343 26.5326 16.9343 22.7147 16.9343 18.8934L16.931 18.8869Z" fill="#92A500"/>
</svg>
